<?xml version="1.0"?><svg id="Layer_1" style="enable-background:new 0 0 64 64;" version="1.1" viewBox="0 0 64 64" xml:space="preserve" xmlns="http://www.w3.org/2000/svg" xmlns:xlink="http://www.w3.org/1999/xlink"><style type="text/css">
	.st0{fill:#2D3E55;}
</style><g><g><path class="st0" d="M37.2,57.9c0-1-0.8-1.7-1.7-1.7h-7c-1,0-1.7,0.8-1.7,1.7H1l0,0C1,60.7,3.3,63,6.1,63h51.7    c2.8,0,5.1-2.3,5.1-5.1l0,0H37.2z"/><path class="st0" d="M58.9,14L56,18v31c0,0.7-0.5,1.2-1.2,1.2H9.2c-0.7,0-1.2-0.5-1.2-1.2V17c0-0.7,0.5-1.2,1.2-1.2h38.8l1.9-3.9    H9.2c-2.8,0-5.1,2.3-5.1,5.1v31.9c0,2.8,2.3,5.1,5.1,5.1h45.6c2.8,0,5.1-2.3,5.1-5.1V17C59.9,15.9,59.5,14.8,58.9,14z"/></g><g><g><rect class="st0" height="14.2" width="14.2" x="20.8" y="22"/><path class="st0" d="M19.4,28.6c-3.6,0.7-6.3,3.8-6.3,7.6c0,4.3,3.5,7.7,7.7,7.7c3.8,0,6.9-2.7,7.6-6.3h-9V28.6z"/></g><g><path class="st0" d="M38,32.6c-0.8-0.9-0.4-2.2,0.6-2.6c1.3-0.5,2.8-1.5,2.8-3.3c-0.1-4.1,4-4.5,5.6-4c1.9,0.6,5.4,4.3,1.6,8.9     c-1,1.2-2.2,2-3.6,2.5C43,34.7,40.1,35,38,32.6z"/><path class="st0" d="M62.6,6.3c-0.1,0.2-0.2,0.4-0.3,0.5L50.3,23.4c-0.8-1-1.9-1.7-2.8-2c-0.2-0.1-0.3-0.1-0.5-0.1L56.1,3     C57,1.2,59.2,0.5,61,1.4C62.8,2.3,63.5,4.5,62.6,6.3z"/></g></g></g></svg>