<?xml version="1.0"?><svg viewBox="0 0 64 64" xmlns="http://www.w3.org/2000/svg"><g id="network-world-cloud-server-wifi"><path d="M49,4A11.013,11.013,0,0,1,60,15a1,1,0,0,0,2,0A13.015,13.015,0,0,0,49,2a1,1,0,0,0,0,2Z"/><path d="M49,12a3,3,0,0,1,3,3,1,1,0,0,0,2,0,5.006,5.006,0,0,0-5-5,1,1,0,0,0,0,2Z"/><path d="M49,8a7.008,7.008,0,0,1,7,7,1,1,0,0,0,2,0,9.01,9.01,0,0,0-9-9,1,1,0,0,0,0,2Z"/><path d="M18,57H10a1,1,0,0,0,0,2h8a1,1,0,0,0,0-2Z"/><path d="M7,57H6a1,1,0,0,0,0,2H7a1,1,0,0,0,0-2Z"/><path d="M6,53H7a1,1,0,0,0,0-2H6a1,1,0,0,0,0,2Z"/><path d="M10,53h8a1,1,0,0,0,0-2H10a1,1,0,0,0,0,2Z"/><path d="M19,48H5a3,3,0,0,0-3,3v2a2.981,2.981,0,0,0,.78,2A2.981,2.981,0,0,0,2,57v2a3,3,0,0,0,3,3H19a3,3,0,0,0,3-3V57a2.981,2.981,0,0,0-.78-2A2.981,2.981,0,0,0,22,53V51A3,3,0,0,0,19,48ZM4,51a1,1,0,0,1,1-1H19a1,1,0,0,1,1,1v2a1,1,0,0,1-1,1H5a1,1,0,0,1-1-1Zm16,8a1,1,0,0,1-1,1H5a1,1,0,0,1-1-1V57a1,1,0,0,1,1-1H19a1,1,0,0,1,1,1Z"/><path d="M53,44a9,9,0,1,0,9,9A9.01,9.01,0,0,0,53,44ZM49,58.736V58a3,3,0,0,1,3-3h2a3,3,0,0,1,3,3v.736a6.961,6.961,0,0,1-8,0ZM53,53a2,2,0,1,1,2-2A2,2,0,0,1,53,53Zm5.849,3.835a5,5,0,0,0-2.738-3.351,4,4,0,1,0-6.222,0,5,5,0,0,0-2.738,3.351,7,7,0,1,1,11.7,0Z"/><path d="M32,14A18,18,0,1,0,50,32,18.021,18.021,0,0,0,32,14Zm-1,8.972a29.127,29.127,0,0,1-5.31-.649c1.281-3.3,3.177-5.616,5.31-6.177Zm0,2V31H24.026a28.206,28.206,0,0,1,1.023-6.773A31.053,31.053,0,0,0,31,24.971ZM31,33v6.029a31.053,31.053,0,0,0-5.951.744A28.206,28.206,0,0,1,24.026,33Zm0,8.028v6.826c-2.133-.561-4.029-2.875-5.31-6.177A29.127,29.127,0,0,1,31,41.028Zm2,0a29.127,29.127,0,0,1,5.31.649c-1.281,3.3-3.177,5.616-5.31,6.177Zm0-2V33h6.974a28.206,28.206,0,0,1-1.023,6.773A31.053,31.053,0,0,0,33,39.029ZM33,31V24.971a31.053,31.053,0,0,0,5.951-.744A28.206,28.206,0,0,1,39.974,31Zm0-8.028V16.146c2.133.561,4.029,2.875,5.31,6.177A29.127,29.127,0,0,1,33,22.972Zm4.636-5.927a16.014,16.014,0,0,1,5.6,3.582,19.223,19.223,0,0,1-2.947,1.182A16.693,16.693,0,0,0,37.636,17.045ZM23.71,21.809a19.223,19.223,0,0,1-2.947-1.182,16.014,16.014,0,0,1,5.6-3.582A16.693,16.693,0,0,0,23.71,21.809Zm-.614,1.9A30.253,30.253,0,0,0,22.027,31H16.051a15.9,15.9,0,0,1,3.357-8.837A20.686,20.686,0,0,0,23.1,23.707ZM22.027,33A30.253,30.253,0,0,0,23.1,40.293a20.686,20.686,0,0,0-3.688,1.544A15.9,15.9,0,0,1,16.051,33Zm1.683,9.191a16.693,16.693,0,0,0,2.654,4.764,16.014,16.014,0,0,1-5.6-3.582A19.223,19.223,0,0,1,23.71,42.191Zm16.58,0a19.223,19.223,0,0,1,2.947,1.182,16.014,16.014,0,0,1-5.6,3.582A16.693,16.693,0,0,0,40.29,42.191Zm.614-1.9A30.253,30.253,0,0,0,41.973,33h5.976a15.9,15.9,0,0,1-3.357,8.837A20.686,20.686,0,0,0,40.9,40.293ZM41.973,31A30.253,30.253,0,0,0,40.9,23.707a20.686,20.686,0,0,0,3.688-1.544A15.9,15.9,0,0,1,47.949,31Z"/><path d="M7,16H19A5,5,0,0,0,19,6c-.115,0-.229,0-.343.011a5.995,5.995,0,0,0-11.314,0C7.229,6,7.115,6,7,6A5,5,0,0,0,7,16ZM7,8a2.887,2.887,0,0,1,.8.109A1,1,0,0,0,8.609,8a.992.992,0,0,0,.457-.681,3.991,3.991,0,0,1,7.868,0,1,1,0,0,0,1.268.792A2.887,2.887,0,0,1,19,8a3,3,0,0,1,0,6H7A3,3,0,0,1,7,8Z"/><path d="M27.173,9.507a23.087,23.087,0,0,1,16.3,2.553,1,1,0,0,0,1-1.732A25.089,25.089,0,0,0,26.755,7.551a1,1,0,1,0,.418,1.956Z"/><path d="M12.331,18.207a1,1,0,0,0-1.382.3A25.021,25.021,0,0,0,11.1,45.726a1,1,0,1,0,1.669-1.1,23.021,23.021,0,0,1-.138-25.038A1,1,0,0,0,12.331,18.207Z"/><path d="M40.663,53.313a23.109,23.109,0,0,1-15.372.693,1,1,0,1,0-.582,1.913,25.109,25.109,0,0,0,16.708-.753,1,1,0,0,0-.754-1.853Z"/><path d="M53.893,41.9a.985.985,0,0,0,.374.074,1,1,0,0,0,.927-.627A25.05,25.05,0,0,0,53.656,19.5a1,1,0,1,0-1.73,1A23.054,23.054,0,0,1,53.339,40.6,1,1,0,0,0,53.893,41.9Z"/></g></svg>